<svg xmlns="http://www.w3.org/2000/svg" width="824" height="960" class="svgbob"><style>.svgbob line, .svgbob path, .svgbob circle, .svgbob rect, .svgbob polygon {
    stroke: black;
    stroke-width: 2;
    stroke-opacity: 1;
    fill-opacity: 1;
    stroke-linecap: round;
    stroke-linejoin: miter;
}
.svgbob text {
    white-space: pre;
    fill: black;
    font-family: Iosevka Fixed, monospace;
    font-size: 14px;
}
.svgbob rect.backdrop {
    stroke: none;
    fill: white;
}
.svgbob .broken {
    stroke-dasharray: 8;
}
.svgbob .filled {
    fill: black;
}
.svgbob .bg_filled {
    fill: white;
    stroke-width: 1;
}
.svgbob .nofill {
    fill: white;
}
.svgbob .end_marked_arrow {
    marker-end: url(#arrow);
}
.svgbob .start_marked_arrow {
    marker-start: url(#arrow);
}
.svgbob .end_marked_diamond {
    marker-end: url(#diamond);
}
.svgbob .start_marked_diamond {
    marker-start: url(#diamond);
}
.svgbob .end_marked_circle {
    marker-end: url(#circle);
}
.svgbob .start_marked_circle {
    marker-start: url(#circle);
}
.svgbob .end_marked_open_circle {
    marker-end: url(#open_circle);
}
.svgbob .start_marked_open_circle {
    marker-start: url(#open_circle);
}
.svgbob .end_marked_big_open_circle {
    marker-end: url(#big_open_circle);
}
.svgbob .start_marked_big_open_circle {
    marker-start: url(#big_open_circle);
}<!--separator--></style><defs><marker id="arrow" viewBox="-2 -2 8 8" refX="4" refY="2" markerWidth="7" markerHeight="7" orient="auto-start-reverse"><polygon points="0,0 0,4 4,2 0,0"></polygon></marker><marker id="diamond" viewBox="-2 -2 8 8" refX="4" refY="2" markerWidth="7" markerHeight="7" orient="auto-start-reverse"><polygon points="0,2 2,0 4,2 2,4 0,2"></polygon></marker><marker id="circle" viewBox="0 0 8 8" refX="4" refY="4" markerWidth="7" markerHeight="7" orient="auto-start-reverse"><circle cx="4" cy="4" r="2" class="filled"></circle></marker><marker id="open_circle" viewBox="0 0 8 8" refX="4" refY="4" markerWidth="7" markerHeight="7" orient="auto-start-reverse"><circle cx="4" cy="4" r="2" class="bg_filled"></circle></marker><marker id="big_open_circle" viewBox="0 0 8 8" refX="4" refY="4" markerWidth="7" markerHeight="7" orient="auto-start-reverse"><circle cx="4" cy="4" r="3" class="bg_filled"></circle></marker></defs><rect class="backdrop" x="0" y="0" width="824" height="960"></rect><text x="706" y="284" >@@@</text><text x="642" y="300" >@@@</text><text x="602" y="316" >@@@</text><text x="570" y="332" >@@@</text><text x="546" y="348" >@@</text><text x="522" y="364" >@@</text><text x="506" y="380" >@@</text><text x="402" y="380" >@</text><text x="394" y="396" >@</text><text x="386" y="412" >@</text><text x="378" y="428" >@</text><text x="482" y="396" >@@</text><text x="466" y="412" >@@</text><text x="458" y="428" >@</text><text x="618" y="428" >@@@@@@@@@@@@@@@@@</text><text x="442" y="444" >@</text><text x="426" y="460" >@@</text><text x="418" y="476" >@</text><text x="410" y="492" >@</text><text x="402" y="508" >@</text><text x="394" y="524" >@</text><text x="386" y="540" >@</text><text x="386" y="556" >@</text><text x="378" y="572" >@</text><text x="378" y="588" >@</text><text x="378" y="604" >@</text><text x="378" y="620" >@</text><text x="378" y="636" >@</text><text x="386" y="652" >@</text><text x="394" y="668" >@</text><text x="578" y="444" >@@@</text><text x="778" y="444" >@@</text><text x="546" y="460" >@@</text><text x="810" y="460" >@</text><text x="522" y="476" >@@</text><text x="506" y="492" >@</text><text x="482" y="508" >@@</text><text x="474" y="524" >@</text><text x="458" y="540" >@@</text><text x="450" y="556" >@</text><text x="442" y="572" >@</text><text x="442" y="588" >@</text><text x="578" y="524" >@@@@@@@@</text><text x="538" y="540" >@</text><text x="658" y="540" >@@</text><text x="674" y="556" >@@</text><text x="690" y="572" >@</text><text x="698" y="588" >@</text><text x="698" y="604" >@</text><text x="698" y="620" >@</text><text x="698" y="636" >@</text><text x="690" y="652" >@</text><text x="690" y="668" >@</text><text x="682" y="684" >@</text><text x="674" y="700" >@</text><text x="666" y="716" >@</text><text x="658" y="732" >@</text><text x="642" y="748" >@@</text><text x="634" y="764" >@</text><text x="306" y="572" >@</text><text x="306" y="588" >@</text><text x="306" y="604" >@</text><text x="306" y="620" >@</text><text x="314" y="636" >@</text><text x="314" y="652" >@</text><text x="322" y="668" >@</text><text x="330" y="684" >@</text><text x="618" y="572" >@</text><text x="530" y="588" >@@@@</text><text x="498" y="604" >@@@@@@@@</text><text x="482" y="620" >@@@@@@@@@</text><text x="482" y="636" >@@@@@@</text><text x="634" y="604" >@</text><text x="634" y="620" >@</text><text x="626" y="636" >@</text><text x="618" y="652" >@</text><text x="610" y="668" >@</text><text x="594" y="684" >@@</text><text x="578" y="700" >@@</text><text x="562" y="716" >@@</text><text x="762" y="620" >@</text><text x="762" y="636" >@</text><text x="754" y="668" >@</text><text x="754" y="684" >@</text><text x="746" y="700" >@</text><text x="746" y="716" >@</text><text x="418" y="684" >@@</text><text x="490" y="684" >@@</text><text x="346" y="700" >@</text><text x="362" y="716" >@</text><text x="538" y="732" >@@</text><text x="514" y="748" >@@</text><text x="482" y="764" >@@@</text><text x="250" y="780" >@</text><text x="442" y="780" >@@@@</text><text x="618" y="780" >@</text><text x="602" y="796" >@@</text><text x="290" y="796" >@@@@@@@@@@@@@@@@</text><text x="586" y="812" >@</text><text x="570" y="828" >@</text><text x="546" y="844" >@@</text><text x="530" y="860" >@</text><text x="506" y="876" >@@</text><text x="474" y="892" >@@@</text><text x="450" y="908" >@@</text><text x="418" y="924" >@@</text><text x="378" y="940" >@@</text></svg>